<svg xmlns="http://www.w3.org/2000/svg" viewBox="0 0 1200 700" role="img" aria-hidden="true">
<defs>
  <linearGradient id="sky" x1="0" y1="0" x2="0" y2="1"><stop stop-color="#c1a17b"/><stop offset="1" stop-color="#f2eee8"/></linearGradient>
  <linearGradient id="deck" x1="0" y1="0" x2="1" y2="1"><stop stop-color="#8f705d"/><stop offset="1" stop-color="#9c6841"/></linearGradient>
</defs>
<rect width="1200" height="700" fill="url(#sky)"/>
<rect y="160" width="1200" height="190" fill="#91b5c8" opacity=".88"/>
<g opacity=".95">
  <rect x="70" y="88" width="210" height="190" rx="8" fill="#e9e2d7"/>
  <rect x="112" y="130" width="55" height="90" fill="#5c707d"/>
  <rect x="185" y="130" width="55" height="90" fill="#b9c7c8"/>
  <rect x="820" y="105" width="290" height="170" rx="8" fill="#e5dfd4"/>
  <rect x="865" y="138" width="90" height="92" fill="#8fa6ac"/>
  <rect x="976" y="138" width="90" height="92" fill="#8fa6ac"/>
</g>
<polygon points="0,330 1200,265 1200,700 0,700" fill="url(#deck)"/>
<g stroke="#70482e" stroke-width="5" opacity=".62">
  <line x1="-120" y1="520" x2="1220" y2="380"/>
  <line x1="-90" y1="585" x2="1230" y2="445"/>
  <line x1="-60" y1="650" x2="1240" y2="510"/>
  <line x1="95" y1="327" x2="260" y2="700"/>
  <line x1="320" y1="315" x2="475" y2="700"/>
  <line x1="550" y1="302" x2="700" y2="700"/>
  <line x1="790" y1="289" x2="930" y2="700"/>
  <line x1="1035" y1="276" x2="1160" y2="700"/>
</g>
<g fill="#5c707d">
  <rect x="350" y="242" width="18" height="200"/>
  <rect x="650" y="224" width="18" height="185"/>
  <rect x="345" y="240" width="330" height="18"/>
</g>
<g fill="#6c765d">
  <circle cx="315" cy="306" r="65"/><circle cx="745" cy="284" r="72"/><circle cx="1140" cy="270" r="82"/>
</g>
</svg>