<svg xmlns="http://www.w3.org/2000/svg" viewBox="0 0 900 620">
<rect width="900" height="620" fill="#eadfce"/><path d="M0 -50 L900 140" stroke="#6f5140" stroke-width="8"/><path d="M0 -45 L900 145" stroke="#9a6e4f" stroke-width="76"/><path d="M0 38 L900 228" stroke="#6f5140" stroke-width="8"/><path d="M0 43 L900 233" stroke="#9a6e4f" stroke-width="76"/><path d="M0 126 L900 316" stroke="#6f5140" stroke-width="8"/><path d="M0 131 L900 321" stroke="#9a6e4f" stroke-width="76"/><path d="M0 214 L900 404" stroke="#6f5140" stroke-width="8"/><path d="M0 219 L900 409" stroke="#9a6e4f" stroke-width="76"/><path d="M0 302 L900 492" stroke="#6f5140" stroke-width="8"/><path d="M0 307 L900 497" stroke="#9a6e4f" stroke-width="76"/><path d="M0 390 L900 580" stroke="#6f5140" stroke-width="8"/><path d="M0 395 L900 585" stroke="#9a6e4f" stroke-width="76"/><path d="M0 478 L900 668" stroke="#6f5140" stroke-width="8"/><path d="M0 483 L900 673" stroke="#9a6e4f" stroke-width="76"/><path d="M0 566 L900 756" stroke="#6f5140" stroke-width="8"/><path d="M0 571 L900 761" stroke="#9a6e4f" stroke-width="76"/><path d="M0 654 L900 844" stroke="#6f5140" stroke-width="8"/><path d="M0 659 L900 849" stroke="#9a6e4f" stroke-width="76"/>

<circle cx="680" cy="465" r="72" fill="#758e68" opacity=".82"/>
<path d="M680 465c-10-76 30-116 56-156M680 465c34-70 84-80 124-91" stroke="#60785b" stroke-width="10" fill="none"/>
</svg>