<svg xmlns="http://www.w3.org/2000/svg" viewBox="0 0 900 620">
<rect width="900" height="620" fill="#eadfce"/>
<rect y="255" width="900" height="70" fill="#c8c5b7"/>
<rect x="80" y="90" width="240" height="165" rx="4" fill="#d6d9cf"/><rect x="115" y="130" width="58" height="78" fill="#9ab4bd"/><rect x="190" y="130" width="86" height="78" fill="#80695f"/>
<circle cx="390" cy="200" r="48" fill="#758e68"/><circle cx="470" cy="218" r="43" fill="#758e68"/><circle cx="550" cy="200" r="38" fill="#758e68"/>
<rect y="325" width="900" height="295" fill="#9a6e4f"/>
<path d="M0 340 H900" stroke="#6f5140" stroke-width="3" opacity=".48"/><path d="M0 382 H900" stroke="#6f5140" stroke-width="3" opacity=".48"/><path d="M0 424 H900" stroke="#6f5140" stroke-width="3" opacity=".48"/><path d="M0 466 H900" stroke="#6f5140" stroke-width="3" opacity=".48"/><path d="M0 508 H900" stroke="#6f5140" stroke-width="3" opacity=".48"/><path d="M0 550 H900" stroke="#6f5140" stroke-width="3" opacity=".48"/><path d="M0 592 H900" stroke="#6f5140" stroke-width="3" opacity=".48"/><path d="M45 320 L15 620" stroke="#6f5140" stroke-width="3" opacity=".42"/><path d="M155 320 L135 620" stroke="#6f5140" stroke-width="3" opacity=".42"/><path d="M265 320 L255 620" stroke="#6f5140" stroke-width="3" opacity=".42"/><path d="M375 320 L375 620" stroke="#6f5140" stroke-width="3" opacity=".42"/><path d="M485 320 L495 620" stroke="#6f5140" stroke-width="3" opacity=".42"/><path d="M595 320 L615 620" stroke="#6f5140" stroke-width="3" opacity=".42"/><path d="M705 320 L735 620" stroke="#6f5140" stroke-width="3" opacity=".42"/><path d="M815 320 L855 620" stroke="#6f5140" stroke-width="3" opacity=".42"/>
<rect y="310" width="900" height="16" fill="#6f5140" opacity=".55"/>
</svg>